<svg width="167" height="62" viewBox="0 0 167 62" fill="none" xmlns="http://www.w3.org/2000/svg">
<circle cx="25" cy="31" r="23" stroke="#EE1C27" stroke-width="4"/>
<path d="M41.2212 29.6674C41.9023 30.033 41.9288 31.0001 41.2687 31.4024L18.1854 45.4688C17.5294 45.8685 16.6864 45.4101 16.6654 44.6422L15.9317 17.7909C15.9107 17.023 16.7275 16.5192 17.4043 16.8825L41.2212 29.6674Z" fill="#EE1C27"/>
<path d="M64.98 34H70.65V14.12H78.49V9.5H57.14V14.12H64.98V34ZM87.1757 29.45V23.78H98.5507V19.37H87.1757V14.05H100.056V9.5H81.5407V34H100.511V29.45H87.1757ZM105.022 34H122.977V29.38H110.692V9.5H105.022V34ZM126.145 34H144.1V29.38H131.815V9.5H126.145V34ZM166.019 9.5H160.454L153.909 20.385L147.364 9.5H141.344L150.829 25.25V34H156.499V25.32L166.019 9.5Z" fill="#EE1C27"/>
<path d="M133.8 56.3C140.25 56.3 144.625 51.775 144.625 45.8C144.625 41.3 141.425 38.2 136.1 38.2C129.65 38.2 125.275 42.725 125.275 48.7C125.275 53.2 128.475 56.3 133.8 56.3ZM134.15 52.85C131.075 52.85 129.375 51.075 129.375 48.475C129.375 44.775 131.8 41.65 135.75 41.65C138.825 41.65 140.525 43.425 140.525 46.025C140.525 49.725 138.1 52.85 134.15 52.85ZM161.369 38.5L159.194 49.475L152.669 38.5H149.319L145.819 56H149.819L152.019 45.05L158.544 56H161.869L165.369 38.5H161.369Z" fill="white"/>
</svg>
